# xmcd
#
# Track frame offsets:
#	150
#	18417
#	36267
#	43911
#	61835
#	81148
#	89400
#	94320
#	102647
#
# Disc length: 1481 seconds
#
# Revision: 1
# Processed by: cddbd v1.5.1PL0 Copyright (c) Steve Scherf et al.
# Submitted via: CDex 1.50Beta5
#
DISCID=7405c709
DTITLE=サウンドトラック - らぶ2・ナビゲーション
DYEAR=1900
DGENRE=
TTITLE0=1
TTITLE1=恋のナビゲーション
TTITLE2=2
TTITLE3=恋のナビゲーション
TTITLE4=3
TTITLE5=恋のナビゲーション
TTITLE6=4
TTITLE7=恋のナビゲーション
TTITLE8=5
EXTD=
EXTT0=
EXTT1=
EXTT2=
EXTT3=
EXTT4=
EXTT5=
EXTT6=
EXTT7=
EXTT8=
PLAYORDER=
